<?xml version="1.0" standalone="no"?>
<!DOCTYPE svg PUBLIC "-//W3C//DTD SVG 20010904//EN"
 "http://www.w3.org/TR/2001/REC-SVG-20010904/DTD/svg10.dtd">
<svg version="1.0" xmlns="http://www.w3.org/2000/svg"
 width="768.000000pt" height="768.000000pt" viewBox="0 0 768.000000 768.000000"
 preserveAspectRatio="xMidYMid meet">
<metadata>
Created by potrace 1.16, written by Peter Selinger 2001-2019
</metadata>
<g transform="translate(0.000000,768.000000) scale(0.100000,-0.100000)"
fill="#000000" stroke="none">
<path d="M1567 5172 l-1317 -1317 0 -543 0 -542 1320 0 1320 0 0 -660 0 -660
665 0 665 0 0 1200 0 1200 -1312 2 -1313 3 1314 1318 1315 1317 -670 0 -669 0
-1318 -1318z"/>
<path d="M4780 5823 l0 -668 660 660 660 660 0 -650 0 -650 -660 -660 -660
-660 0 -667 0 -668 1325 0 1325 0 0 665 c0 366 -3 665 -7 665 -5 0 -302 -294
-660 -652 l-653 -653 0 650 0 650 660 660 660 660 0 662 0 663 -1325 0 -1325
0 0 -667z"/>
</g>
</svg>
